<svg width="55" height="55" viewBox="0 0 55 55" fill="none" xmlns="http://www.w3.org/2000/svg">
<path d="M27.7681 10.2061C37.9741 10.2061 46.1914 16.8662 46.1914 25.1386C46.1914 29.1673 44.2045 32.7114 41.0884 35.5043C36.0388 40.499 27.3384 45.5487 26.4258 45.1723C24.9219 44.5811 27.5533 41.3584 26.4791 39.9628C26.3175 39.7479 25.7263 39.8012 24.652 39.6397C15.7902 38.4572 9.45142 32.6031 9.45142 25.0836C9.45142 16.8112 17.6155 10.2061 27.7664 10.2061H27.7681ZM17.2958 30.0782H20.4119C20.9499 30.0782 21.2713 29.6486 21.2713 29.1106C21.2713 28.7342 21.0031 28.2512 20.3036 28.2512H17.7788C17.5639 28.2512 17.5639 28.0364 17.5639 27.2836V21.8592C17.5639 21.3762 17.2408 20.8915 16.6513 20.8915C16.1133 20.8915 15.7386 21.3212 15.7386 21.8592V28.4128C15.7386 29.8634 16.4364 30.0782 17.2958 30.0782ZM24.3306 29.3271V21.8609C24.3306 21.3779 23.9542 20.8932 23.363 20.8932C22.88 20.8932 22.4503 21.3229 22.4503 21.8609V29.3271C22.4503 29.8101 22.8267 30.1865 23.418 30.1865C23.9009 30.1865 24.3306 29.8101 24.3306 29.3271ZM33.1392 28.3062V21.7526C33.1392 21.2696 32.7628 20.8932 32.1716 20.8932C31.7419 20.8932 31.2589 21.1614 31.2589 21.7526V26.4792L28.1428 22.129C27.7131 21.3762 27.1752 20.8932 26.5306 20.8932C25.7245 20.8932 25.6713 21.5378 25.6713 22.4504V29.3254C25.6713 29.8084 26.0477 30.1848 26.5839 30.1848C27.0669 30.1848 27.4966 29.8617 27.4966 29.3254V24.4373L30.6127 28.7875C31.3105 29.7001 31.472 30.1848 32.3314 30.1848C32.9227 30.1848 33.1375 29.6468 33.1375 28.3045L33.1392 28.3062ZM39.1549 24.6006H36.4152V23.0434C36.4152 22.8818 36.4684 22.667 36.7383 22.667H39.1549C39.7461 22.667 40.1225 22.3439 40.1225 21.7543C40.1225 21.0565 39.5845 20.8417 39.1016 20.8417H35.9855C35.0178 20.8417 34.5349 21.4862 34.5349 22.3456V28.4145C34.5349 29.4887 34.9645 30.08 35.9855 30.08H39.1549C39.8527 30.08 40.1225 29.6503 40.1225 29.1123C40.1225 28.4145 39.5845 28.1996 39.1549 28.1996H36.7916C36.5767 28.1996 36.4152 28.0381 36.4152 27.8765V26.3726H39.2614C39.9592 26.3726 40.0675 25.8346 40.0675 25.46C40.0675 24.922 39.6378 24.6006 39.1549 24.6006Z" fill="#555555"/>
</svg>
