<svg width="30" height="30" viewBox="0 0 30 30" fill="none" xmlns="http://www.w3.org/2000/svg">
<path d="M14.9999 27.807C21.9935 27.807 27.8069 22.0062 27.8069 15.0001C27.8069 8.00647 21.981 2.19312 14.9874 2.19312C7.98123 2.19312 2.19305 8.00647 2.19305 15.0001C2.19305 22.0062 7.99382 27.807 14.9999 27.807ZM14.9999 19.2816C11.2206 19.2816 8.3077 20.6251 7.03955 22.1318C5.35709 20.2483 4.34004 17.7498 4.34004 15.0001C4.34004 9.08626 9.06107 4.32762 14.9874 4.32762C20.9012 4.32762 25.6598 9.08626 25.6724 15.0001C25.6724 17.7624 24.6554 20.2609 22.9603 22.1443C21.6922 20.6376 18.7793 19.2816 14.9999 19.2816ZM14.9999 17.1471C17.4107 17.1722 19.3066 15.113 19.3066 12.4136C19.3066 9.87729 17.3981 7.76792 14.9999 7.76792C12.5892 7.76792 10.6682 9.87729 10.6933 12.4136C10.7059 15.113 12.5767 17.122 14.9999 17.1471Z" fill="black"/>
</svg>
