<svg width="50" height="50" viewBox="0 0 50 50" fill="none" xmlns="http://www.w3.org/2000/svg">
<path d="M24.9999 6.66675C18.0233 6.66675 8.96802 8.4148 8.96802 8.4148L8.94523 8.44084C5.76769 8.94902 3.33325 11.6795 3.33325 15.0001V25.0001V25.0033V35.0001V35.0033C3.33635 36.5892 3.9047 38.1221 4.93625 39.3266C5.9678 40.5312 7.39497 41.3286 8.96151 41.5756L8.96802 41.5854C8.96802 41.5854 18.0233 43.3367 24.9999 43.3367C31.9766 43.3367 41.0318 41.5854 41.0318 41.5854L41.0351 41.5821C42.6033 41.3356 44.0321 40.5376 45.0645 39.3316C46.0968 38.1256 46.6649 36.5908 46.6666 35.0033V35.0001V25.0033V25.0001V15.0001C46.6643 13.4136 46.0963 11.88 45.0646 10.6748C44.033 9.46952 42.6054 8.67167 41.0383 8.42456L41.0318 8.4148C41.0318 8.4148 31.9766 6.66675 24.9999 6.66675ZM19.9999 17.3308L33.3333 25.0001L19.9999 32.6694V17.3308Z" fill="#555555"/>
</svg>
