<svg width="30" height="32" viewBox="0 0 30 32" fill="none" xmlns="http://www.w3.org/2000/svg">
<path d="M9.375 24C10.4105 24 11.25 24.8955 11.25 26C11.25 27.1045 10.4105 28 9.375 28C8.33946 28 7.5 27.1045 7.5 26C7.5 24.8955 8.33946 24 9.375 24Z" stroke="#333333" stroke-width="3.75"/>
<path d="M20.625 24.0002C21.6605 24.0002 22.5 24.8956 22.5 26.0002C22.5 27.1048 21.6605 28.0002 20.625 28.0002C19.5895 28.0002 18.75 27.1048 18.75 26.0002C18.75 24.8956 19.5895 24.0002 20.625 24.0002Z" stroke="#333333" stroke-width="3.75"/>
<path d="M2.81096 3.05664C2.3225 2.87345 1.78731 3.14733 1.61558 3.66834C1.44385 4.18937 1.70061 4.76024 2.18906 4.94341L2.81096 3.05664ZM25.8223 13.177L26.7404 13.379L26.7416 13.3728L25.8223 13.177ZM7.13511 13.0134V9.3845H5.26011V13.0134H7.13511ZM3.13747 3.17908L2.81096 3.05664L2.18906 4.94341L2.51557 5.06586L3.13747 3.17908ZM13.6719 21.6667H20.3005V19.6667H13.6719V21.6667ZM7.13511 9.3845C7.13511 8.44162 7.13638 7.65482 7.0715 7.01545C7.00433 6.35361 6.85882 5.74998 6.50635 5.1998L4.95827 6.3282C5.0711 6.50432 5.15822 6.74621 5.20738 7.23068C5.25883 7.73762 5.26011 8.3979 5.26011 9.3845H7.13511ZM2.51557 5.06586C3.35008 5.37882 3.89852 5.58623 4.30208 5.79744C4.68111 5.99581 4.8482 6.15638 4.95827 6.3282L6.50635 5.1998C6.15112 4.64532 5.67881 4.2902 5.12802 4.00193C4.60175 3.72649 3.92995 3.47628 3.13747 3.17908L2.51557 5.06586ZM5.26011 13.0134C5.26011 14.95 5.27715 16.3466 5.44846 17.4135C5.63136 18.5526 5.99653 19.3682 6.67932 20.1363L8.03998 18.7603C7.63978 18.31 7.42392 17.8691 7.29655 17.0759C7.1576 16.2104 7.13511 14.9987 7.13511 13.0134H5.26011ZM13.6719 19.6667C11.9009 19.6667 10.672 19.6643 9.74621 19.5243C8.8527 19.3891 8.38066 19.1435 8.03998 18.7603L6.67932 20.1363C7.42165 20.9715 8.36266 21.3351 9.48296 21.5044C10.5709 21.6691 11.9567 21.6667 13.6719 21.6667V19.6667ZM6.19761 9.16002H21.361V7.16002H6.19761V9.16002ZM24.904 12.9752L24.2794 16.2082L26.1158 16.6119L26.7404 13.379L24.904 12.9752ZM21.361 9.16002C22.4315 9.16002 23.3736 9.16136 24.1171 9.25001C24.4866 9.29406 24.7631 9.35526 24.9574 9.42809C25.1591 9.50371 25.1913 9.56172 25.1751 9.53921L26.6613 8.31973C26.3675 7.9125 25.9545 7.68196 25.579 7.54118C25.1959 7.3976 24.7626 7.31452 24.3255 7.2624C23.4558 7.15869 22.3968 7.16002 21.361 7.16002V9.16002ZM26.7416 13.3728C26.9531 12.2423 27.1328 11.2937 27.1768 10.5339C27.2219 9.75226 27.1385 8.98158 26.6613 8.31973L25.1751 9.53921C25.2526 9.6468 25.3383 9.84052 25.3053 10.4107C25.271 11.0026 25.1253 11.7931 24.9029 12.9813L26.7416 13.3728ZM20.3005 21.6667C21.2526 21.6667 22.0516 21.6684 22.6958 21.5843C23.3654 21.497 23.9761 21.3059 24.5093 20.8424L23.3248 19.292C23.1683 19.428 22.9464 19.5367 22.468 19.5992C21.964 19.665 21.2996 19.6667 20.3005 19.6667V21.6667ZM24.2794 16.2082C24.0776 17.2519 23.9419 17.9458 23.7798 18.459C23.6259 18.946 23.4813 19.156 23.3248 19.292L24.5093 20.8424C25.0424 20.379 25.3411 19.7795 25.5566 19.0976C25.7639 18.4416 25.9235 17.6066 26.1158 16.6119L24.2794 16.2082Z" fill="#333333"/>
</svg>
