<svg width="231" height="77" viewBox="0 0 231 77" fill="none" xmlns="http://www.w3.org/2000/svg">
<path d="M5.76 52V18.4H10.128V37.312L28.128 18.4H30.528L18.336 31.408L33.312 52H28.32L15.552 34.384L10.128 40.192V52H5.76ZM41.1344 35.2C41.1344 33.376 41.4704 31.44 42.1424 29.392C42.8464 27.344 43.9344 25.472 45.4064 23.776C46.8784 22.048 48.7504 20.624 51.0224 19.504C53.2944 18.384 56.0144 17.824 59.1824 17.824C62.3824 17.824 65.1504 18.4 67.4864 19.552C69.8544 20.672 71.8064 22.096 73.3424 23.824C74.8784 25.552 76.0144 27.44 76.7504 29.488C77.4864 31.504 77.8544 33.408 77.8544 35.2C77.8544 36.384 77.6784 37.632 77.3264 38.944C77.0064 40.256 76.5104 41.568 75.8384 42.88C75.1984 44.16 74.3664 45.392 73.3424 46.576C72.3184 47.728 71.1024 48.752 69.6944 49.648C68.3184 50.544 66.7504 51.264 64.9904 51.808C63.2624 52.32 61.3264 52.576 59.1824 52.576C56.0144 52.576 53.2944 52.016 51.0224 50.896C48.7504 49.744 46.8784 48.304 45.4064 46.576C43.9344 44.848 42.8464 42.976 42.1424 40.96C41.4704 38.912 41.1344 36.992 41.1344 35.2ZM45.8384 35.2C45.8384 37.44 46.1744 39.504 46.8464 41.392C47.5504 43.248 48.4944 44.848 49.6784 46.192C50.8944 47.536 52.3184 48.592 53.9504 49.36C55.5824 50.096 57.3584 50.464 59.2784 50.464C61.1664 50.464 62.9424 50.096 64.6064 49.36C66.3024 48.592 67.7744 47.536 69.0224 46.192C70.3024 44.848 71.3104 43.248 72.0464 41.392C72.7824 39.504 73.1504 37.44 73.1504 35.2C73.1504 32.96 72.7824 30.912 72.0464 29.056C71.3104 27.168 70.3024 25.552 69.0224 24.208C67.7744 22.864 66.3024 21.824 64.6064 21.088C62.9424 20.32 61.1664 19.936 59.2784 19.936C57.3584 19.936 55.5824 20.32 53.9504 21.088C52.3184 21.824 50.8944 22.864 49.6784 24.208C48.4944 25.552 47.5504 27.168 46.8464 29.056C46.1744 30.912 45.8384 32.96 45.8384 35.2ZM90.0256 18.4H100.922C103.066 18.4 104.842 18.704 106.25 19.312C107.658 19.888 108.762 20.624 109.562 21.52C110.394 22.384 110.97 23.328 111.29 24.352C111.642 25.376 111.818 26.32 111.818 27.184C111.818 28.144 111.658 29.136 111.338 30.16C111.018 31.152 110.506 32.08 109.802 32.944C109.098 33.808 108.186 34.528 107.066 35.104C105.978 35.68 104.666 36.016 103.13 36.112V36.304L103.61 36.544C103.994 36.736 104.314 36.976 104.57 37.264C104.858 37.552 105.21 38.016 105.626 38.656C106.074 39.296 106.666 40.208 107.402 41.392C108.138 42.544 109.178 44.096 110.522 46.048C110.97 46.72 111.402 47.328 111.818 47.872C112.234 48.384 112.666 48.832 113.114 49.216C113.562 49.568 114.042 49.84 114.554 50.032C115.066 50.224 115.658 50.32 116.33 50.32C116.49 50.32 116.65 50.32 116.81 50.32C116.97 50.288 117.13 50.256 117.29 50.224V52C116.842 52.256 116.394 52.416 115.946 52.48C115.498 52.544 114.922 52.576 114.218 52.576C113.258 52.576 112.426 52.448 111.722 52.192C111.05 51.936 110.442 51.6 109.898 51.184C109.354 50.736 108.842 50.208 108.362 49.6C107.914 48.992 107.45 48.32 106.97 47.584L103.178 41.968C102.602 41.072 102.106 40.32 101.69 39.712C101.274 39.104 100.826 38.608 100.346 38.224C99.8656 37.84 99.3216 37.568 98.7136 37.408C98.1376 37.248 97.4016 37.168 96.5056 37.168H94.3936V52H90.0256V18.4ZM94.3936 20.512V35.008H99.3376C100.618 35.008 101.738 34.784 102.698 34.336C103.69 33.888 104.522 33.312 105.194 32.608C105.866 31.872 106.362 31.072 106.682 30.208C107.034 29.312 107.21 28.432 107.21 27.568C107.21 26.544 107.018 25.6 106.634 24.736C106.282 23.872 105.754 23.136 105.05 22.528C104.346 21.888 103.498 21.392 102.506 21.04C101.546 20.688 100.458 20.512 99.2416 20.512H94.3936ZM130.399 18.4H134.767V52H130.399V18.4ZM179.285 18.4H181.493V52.576H181.253L154.613 26.32H154.421V52H152.213V17.824H152.453L179.093 44.08H179.285V18.4ZM227.57 37.024V52H223.442V50.032C222.226 50.672 220.69 51.264 218.834 51.808C216.978 52.32 214.85 52.576 212.45 52.576C209.25 52.576 206.498 52.08 204.194 51.088C201.89 50.064 199.986 48.72 198.482 47.056C197.01 45.36 195.906 43.456 195.17 41.344C194.466 39.2 194.114 36.992 194.114 34.72C194.114 32.064 194.578 29.696 195.506 27.616C196.434 25.504 197.73 23.728 199.394 22.288C201.058 20.848 203.026 19.744 205.298 18.976C207.602 18.208 210.114 17.824 212.834 17.824C215.202 17.824 217.25 18.096 218.978 18.64C220.738 19.152 222.21 19.792 223.394 20.56C224.578 21.328 225.506 22.16 226.178 23.056C226.882 23.92 227.378 24.704 227.666 25.408H224.21C224.018 24.736 223.586 24.08 222.914 23.44C222.274 22.768 221.442 22.176 220.418 21.664C219.394 21.152 218.226 20.736 216.914 20.416C215.602 20.096 214.194 19.936 212.69 19.936C210.418 19.936 208.418 20.304 206.69 21.04C204.994 21.776 203.554 22.816 202.37 24.16C201.186 25.504 200.29 27.104 199.682 28.96C199.106 30.816 198.818 32.848 198.818 35.056C198.818 37.296 199.122 39.36 199.73 41.248C200.37 43.104 201.314 44.72 202.562 46.096C203.81 47.44 205.378 48.496 207.266 49.264C209.154 50.032 211.362 50.416 213.89 50.416C215.81 50.416 217.522 50.192 219.026 49.744C220.53 49.296 222.002 48.608 223.442 47.68V38.992H218.066V37.024H227.57Z" fill="black"/>
<path fill-rule="evenodd" clip-rule="evenodd" d="M122.996 53H156.688V72.8881H159.389V63.2079C159.389 62.7613 159.421 62.2142 159.484 61.5667C159.548 60.9191 159.717 60.2938 159.993 59.6909C160.289 59.088 160.723 58.5744 161.295 58.1501C161.867 57.7035 162.661 57.4802 163.678 57.4802C164.398 57.4802 164.97 57.6254 165.394 57.9157C165.838 58.1836 166.177 58.5521 166.41 59.021C166.643 59.4899 166.792 60.037 166.855 60.6623C166.94 61.2875 166.982 61.9351 166.982 62.605V72.8881H169.683V61.8346C169.683 60.5841 169.513 59.5681 169.174 58.7865C168.835 57.9827 168.412 57.3574 167.903 56.9108C167.395 56.4642 166.834 56.1627 166.22 56.0064C165.627 55.8501 165.055 55.772 164.504 55.772C163.763 55.772 162.979 55.9283 162.153 56.2409C161.348 56.5312 160.586 57.1006 159.865 57.9492L159.516 58.4181H159.389V53H229.23V76.028H197.117V70.1416H197.244C197.456 70.7221 197.731 71.2134 198.07 71.6154C198.43 72.0173 198.832 72.3411 199.277 72.5867C199.722 72.8323 200.188 73.011 200.675 73.1226C201.183 73.2343 201.692 73.2901 202.2 73.2901C203.259 73.2901 204.233 73.0891 205.123 72.6872C206.013 72.2629 206.775 71.6712 207.411 70.9119C208.067 70.1527 208.575 69.2372 208.936 68.1653C209.296 67.0712 209.476 65.8653 209.476 64.5478C209.476 63.208 209.296 62.0022 208.936 60.9303C208.575 59.8585 208.067 58.943 207.411 58.1837C206.775 57.4022 206.013 56.8104 205.123 56.4085C204.233 55.9842 203.259 55.7721 202.2 55.7721C199.68 55.7721 198.028 56.7992 197.244 58.8536H197.117V56.1405H194.416V76.028H122.996V53ZM197.117 62.8396V65.7537C197.117 66.6692 197.233 67.4843 197.466 68.1988C197.72 68.9134 198.049 69.5275 198.451 70.0411C198.854 70.5323 199.32 70.9119 199.849 71.1799C200.379 71.4255 200.94 71.5484 201.533 71.5484C202.19 71.5484 202.814 71.4255 203.407 71.1799C204 70.9119 204.519 70.4988 204.964 69.9406C205.43 69.36 205.79 68.6231 206.044 67.7299C206.32 66.8367 206.457 65.7537 206.457 64.4808C206.457 63.2304 206.32 62.1585 206.044 61.2653C205.79 60.3721 205.441 59.6464 204.996 59.0881C204.551 58.5298 204.022 58.1279 203.407 57.8823C202.814 57.6143 202.19 57.4803 201.533 57.4803C200.919 57.4803 200.336 57.6255 199.786 57.9158C199.256 58.1837 198.79 58.5633 198.388 59.0546C197.985 59.5235 197.667 60.093 197.434 60.7629C197.223 61.4104 197.117 62.1027 197.117 62.8396ZM189.709 67.8974C190.09 66.8255 190.281 65.709 190.281 64.5478C190.281 63.3867 190.09 62.2813 189.709 61.2318C189.328 60.1599 188.777 59.2221 188.057 58.4182C187.358 57.6143 186.5 56.9779 185.483 56.509C184.488 56.0177 183.365 55.7721 182.116 55.7721C180.845 55.7721 179.691 56.0177 178.653 56.509C177.636 56.9779 176.768 57.6143 176.048 58.4182C175.349 59.2221 174.798 60.1599 174.395 61.2318C174.014 62.2813 173.824 63.3867 173.824 64.5478C173.824 65.6867 174.014 66.792 174.395 67.8639C174.798 68.9134 175.349 69.8401 176.048 70.644C176.768 71.4479 177.636 72.0954 178.653 72.5867C179.691 73.0556 180.845 73.2901 182.116 73.2901C183.365 73.2901 184.488 73.0556 185.483 72.5867C186.5 72.1178 187.358 71.4814 188.057 70.6775C188.777 69.8736 189.328 68.9469 189.709 67.8974ZM186.786 60.7629C187.104 61.7231 187.263 62.9847 187.263 64.5478C187.263 66.0886 187.104 67.3503 186.786 68.3328C186.468 69.293 186.055 70.0411 185.547 70.577C185.039 71.1129 184.477 71.4814 183.863 71.6823C183.249 71.861 182.656 71.9503 182.084 71.9503C181.512 71.9503 180.919 71.861 180.305 71.6823C179.691 71.4814 179.119 71.1129 178.589 70.577C178.081 70.0411 177.657 69.293 177.318 68.3328C177.001 67.3503 176.842 66.0886 176.842 64.5478C176.842 62.9847 177.001 61.7231 177.318 60.7629C177.657 59.7803 178.081 59.0211 178.589 58.4852C179.119 57.9493 179.691 57.592 180.305 57.4133C180.919 57.2124 181.512 57.1119 182.084 57.1119C182.656 57.1119 183.249 57.2124 183.863 57.4133C184.477 57.592 185.039 57.9493 185.547 58.4852C186.055 59.0211 186.468 59.7803 186.786 60.7629ZM149.747 59.959H151.558C151.558 59.3561 151.41 58.7978 151.114 58.2842C150.817 57.7706 150.404 57.3352 149.875 56.9779C149.366 56.5983 148.763 56.308 148.064 56.107C147.386 55.8837 146.655 55.7721 145.871 55.7721C145.13 55.7721 144.431 55.8725 143.775 56.0735C143.139 56.2745 142.578 56.5759 142.091 56.9779C141.625 57.3798 141.254 57.8823 140.979 58.4852C140.703 59.0658 140.566 59.7468 140.566 60.5284C140.566 61.6002 140.799 62.4488 141.265 63.074C141.731 63.6993 142.313 64.2017 143.012 64.5813C143.711 64.9609 144.463 65.2736 145.268 65.5192C146.094 65.7425 146.856 65.9993 147.555 66.2896C148.254 66.5576 148.837 66.9037 149.303 67.3279C149.769 67.7522 150.002 68.3328 150.002 69.0697C150.002 69.3823 149.949 69.7061 149.843 70.0411C149.758 70.376 149.589 70.6886 149.334 70.9789C149.08 71.2469 148.731 71.4814 148.286 71.6823C147.841 71.861 147.28 71.9503 146.602 71.9503C145.755 71.9503 145.035 71.8163 144.442 71.5484C143.87 71.2581 143.393 70.9231 143.012 70.5435C142.652 70.1416 142.387 69.7396 142.218 69.3377C142.069 68.9357 141.995 68.6008 141.995 68.3328H139.93C139.93 68.9581 140.068 69.5721 140.343 70.1751C140.619 70.7556 141.032 71.2804 141.582 71.7493C142.154 72.2183 142.843 72.5979 143.647 72.8882C144.473 73.1561 145.427 73.2901 146.507 73.2901C148.455 73.2901 149.917 72.8435 150.891 71.9503C151.887 71.0348 152.384 69.8401 152.384 68.3663C152.384 67.2945 152.141 66.4347 151.654 65.7872C151.188 65.1396 150.595 64.626 149.875 64.2464C149.154 63.8444 148.371 63.5206 147.523 63.275C146.697 63.0294 145.924 62.7726 145.204 62.5046C144.484 62.2367 143.88 61.9129 143.393 61.5333C142.927 61.1536 142.694 60.6177 142.694 59.9255C142.694 59.6352 142.747 59.3337 142.853 59.0211C142.959 58.6862 143.139 58.3847 143.393 58.1167C143.647 57.8264 143.986 57.592 144.41 57.4133C144.834 57.2124 145.363 57.1119 145.998 57.1119C146.634 57.1119 147.185 57.2124 147.651 57.4133C148.117 57.592 148.508 57.8264 148.826 58.1167C149.144 58.3847 149.377 58.6862 149.525 59.0211C149.673 59.3561 149.747 59.6687 149.747 59.959Z" fill="#DD8560"/>
</svg>
